<svg width="303" height="1384" viewBox="0 0 303 1384" fill="none" xmlns="http://www.w3.org/2000/svg">
<g filter="url(#filter0_d_5530_0)">
<rect width="283" height="1695" fill="white"/>
</g>
<path d="M41.4137 460.797L40.0006 459.384C39.6879 459.074 39.2653 458.9 38.825 458.9H32.0919C31.6525 458.9 31.228 459.075 30.9163 459.384L29.5031 460.797H26V468.388H27.9C28.4225 468.388 28.8441 467.967 28.847 467.447H29.1172L31.6288 469.715C32.5461 470.46 33.8197 470.478 34.7638 469.828C35.1348 470.149 35.5356 470.3 35.9839 470.3C36.5242 470.3 37.0319 470.08 37.4327 469.587C38.0887 469.846 38.8636 469.665 39.3327 469.089L40.1105 468.13C40.2767 467.925 40.3806 467.69 40.4341 467.447H42.153C42.1559 467.967 42.5805 468.388 43.1 468.388H45V460.797H41.4137ZM27.425 467.438C27.1637 467.438 26.95 467.224 26.95 466.963C26.95 466.702 27.1637 466.488 27.425 466.488C27.6862 466.488 27.9 466.702 27.9 466.963C27.9 467.227 27.6862 467.438 27.425 467.438ZM39.0031 467.233L38.2283 468.189C38.1452 468.29 37.9967 468.308 37.8928 468.225L37.1833 467.649L36.2927 468.732C36.1145 468.949 35.8473 468.875 35.7583 468.804L34.6658 467.869L34.2027 468.439C33.79 468.946 33.0389 469.023 32.5609 468.635L29.6723 466.022H28.85V462.219H30.0939L31.9256 460.39C31.985 460.367 32.0355 460.346 32.0948 460.322H33.7781L32.6292 461.376C31.7564 462.175 31.7059 463.522 32.4986 464.383C32.938 464.864 34.3155 465.606 35.5119 464.514L35.7553 464.291L38.9675 466.898C39.0684 466.981 39.0833 467.132 39.0031 467.233ZM42.15 466.022H40.0956C40.0273 465.939 39.9502 465.862 39.867 465.793L36.8181 463.317L37.1892 462.979C37.3822 462.801 37.397 462.501 37.2189 462.308L36.8953 461.961C36.7172 461.768 36.4173 461.756 36.2244 461.931L34.5856 463.433C34.3036 463.692 33.8227 463.712 33.5584 463.433C33.2823 463.139 33.3061 462.688 33.5941 462.427L35.5416 460.643C35.7612 460.441 36.0462 460.331 36.3431 460.331L38.828 460.325C38.8903 460.325 38.9497 460.349 38.9913 460.393L40.823 462.222H42.15V466.022ZM43.575 467.438C43.3137 467.438 43.1 467.224 43.1 466.963C43.1 466.702 43.3137 466.488 43.575 466.488C43.8363 466.488 44.05 466.702 44.05 466.963C44.05 467.227 43.8363 467.438 43.575 467.438Z" fill="#213F7D"/>
<defs>
<filter id="filter0_d_5530_0" x="-20" y="-15" width="323" height="1735" filterUnits="userSpaceOnUse" color-interpolation-filters="sRGB">
<feFlood flood-opacity="0" result="BackgroundImageFix"/>
<feColorMatrix in="SourceAlpha" type="matrix" values="0 0 0 0 0 0 0 0 0 0 0 0 0 0 0 0 0 0 127 0" result="hardAlpha"/>
<feOffset dy="5"/>
<feGaussianBlur stdDeviation="10"/>
<feColorMatrix type="matrix" values="0 0 0 0 0 0 0 0 0 0 0 0 0 0 0 0 0 0 0.04 0"/>
<feBlend mode="normal" in2="BackgroundImageFix" result="effect1_dropShadow_5530_0"/>
<feBlend mode="normal" in="SourceGraphic" in2="effect1_dropShadow_5530_0" result="shape"/>
</filter>
</defs>
</svg>
