<svg width="303" height="1384" viewBox="0 0 303 1384" fill="none" xmlns="http://www.w3.org/2000/svg">
<g filter="url(#filter0_d_5530_0)">
<rect width="283" height="1695" fill="white"/>
</g>
<path opacity="0.4" d="M32.4 362.6C32.7165 362.6 33.0258 362.506 33.2889 362.33C33.552 362.155 33.7571 361.905 33.8782 361.612C33.9993 361.32 34.031 360.998 33.9693 360.688C33.9075 360.377 33.7551 360.092 33.5314 359.869C33.3076 359.645 33.0225 359.492 32.7121 359.431C32.4018 359.369 32.0801 359.401 31.7877 359.522C31.4953 359.643 31.2455 359.848 31.0696 360.111C30.8938 360.374 30.8 360.684 30.8 361C30.8004 361.424 30.9691 361.831 31.2691 362.131C31.569 362.431 31.9758 362.6 32.4 362.6V362.6ZM44.4 363.4H42.8C42.3774 363.4 41.9719 363.567 41.6725 363.865C42.1789 364.141 42.613 364.532 42.9392 365.007C43.2655 365.483 43.4748 366.028 43.55 366.6H45.2C45.4122 366.6 45.6157 366.516 45.7657 366.366C45.9157 366.216 46 366.012 46 365.8V365C45.9996 364.576 45.8309 364.169 45.5309 363.869C45.231 363.569 44.8242 363.4 44.4 363.4ZM31.6 363.4C31.1758 363.4 30.769 363.569 30.4691 363.869C30.1691 364.169 30.0004 364.576 30 365V365.8C30 366.012 30.0843 366.216 30.2343 366.366C30.3843 366.516 30.5878 366.6 30.8 366.6H32.4475C32.5237 366.028 32.7336 365.483 33.0603 365.008C33.3869 364.532 33.8211 364.141 34.3275 363.865C34.0281 363.567 33.6226 363.4 33.2 363.4H31.6ZM43.6 362.6C43.9165 362.6 44.2258 362.506 44.4889 362.33C44.752 362.155 44.9571 361.905 45.0782 361.612C45.1993 361.32 45.231 360.998 45.1693 360.688C45.1075 360.377 44.9551 360.092 44.7314 359.869C44.5076 359.645 44.2225 359.492 43.9121 359.431C43.6018 359.369 43.2801 359.401 42.9877 359.522C42.6953 359.643 42.4455 359.848 42.2696 360.111C42.0938 360.374 42 360.684 42 361C42.0004 361.424 42.1691 361.831 42.4691 362.131C42.769 362.431 43.1758 362.6 43.6 362.6Z" fill="#213F7D"/>
<path d="M39.92 364.2H39.7125C39.1791 364.461 38.5936 364.597 38 364.6C37.385 364.6 36.81 364.45 36.2875 364.2H36.08C35.3162 364.2 34.5838 364.504 34.0437 365.044C33.5036 365.584 33.2001 366.316 33.2 367.08V367.8C33.2 368.118 33.3264 368.424 33.5514 368.649C33.7765 368.874 34.0817 369 34.4 369H41.6C41.9182 369 42.2234 368.874 42.4485 368.649C42.6735 368.424 42.8 368.118 42.8 367.8V367.08C42.7998 366.316 42.4963 365.584 41.9562 365.044C41.4161 364.504 40.6837 364.2 39.92 364.2V364.2ZM38 363.4C38.5537 363.4 39.0951 363.236 39.5555 362.928C40.016 362.62 40.3749 362.183 40.5868 361.672C40.7987 361.16 40.8542 360.597 40.7462 360.054C40.6381 359.511 40.3714 359.012 39.9799 358.62C39.5883 358.229 39.0894 357.962 38.5462 357.854C38.0031 357.746 37.4401 357.801 36.9284 358.013C36.4168 358.225 35.9795 358.584 35.6718 359.044C35.3642 359.505 35.2 360.046 35.2 360.6C35.1998 360.968 35.272 361.332 35.4127 361.672C35.5533 362.012 35.7596 362.32 36.0196 362.58C36.2797 362.84 36.5884 363.047 36.9282 363.187C37.268 363.328 37.6322 363.4 38 363.4Z" fill="#213F7D"/>
<defs>
<filter id="filter0_d_5530_0" x="-20" y="-15" width="323" height="1735" filterUnits="userSpaceOnUse" color-interpolation-filters="sRGB">
<feFlood flood-opacity="0" result="BackgroundImageFix"/>
<feColorMatrix in="SourceAlpha" type="matrix" values="0 0 0 0 0 0 0 0 0 0 0 0 0 0 0 0 0 0 127 0" result="hardAlpha"/>
<feOffset dy="5"/>
<feGaussianBlur stdDeviation="10"/>
<feColorMatrix type="matrix" values="0 0 0 0 0 0 0 0 0 0 0 0 0 0 0 0 0 0 0.04 0"/>
<feBlend mode="normal" in2="BackgroundImageFix" result="effect1_dropShadow_5530_0"/>
<feBlend mode="normal" in="SourceGraphic" in2="effect1_dropShadow_5530_0" result="shape"/>
</filter>
</defs>
</svg>
