<svg width="303" height="1384" viewBox="0 0 303 1384" fill="none" xmlns="http://www.w3.org/2000/svg">
<g filter="url(#filter0_d_5530_0)">
<rect width="283" height="1695" fill="white"/>
</g>
<g clip-path="url(#clip0_5530_0)">
<path opacity="0.4" d="M44.88 661.86L43.74 663L44.88 664.14C44.9175 664.177 44.9472 664.222 44.9674 664.271C44.9877 664.32 44.9982 664.372 44.9982 664.425C44.9982 664.478 44.9877 664.53 44.9674 664.579C44.9472 664.628 44.9175 664.673 44.88 664.71L44.31 665.28C44.2726 665.317 44.2282 665.347 44.1792 665.367C44.1303 665.388 44.0779 665.398 44.025 665.398C43.972 665.398 43.9196 665.388 43.8707 665.367C43.8218 665.347 43.7774 665.317 43.74 665.28L42.6 664.14L41.46 665.28C41.4226 665.317 41.3781 665.347 41.3292 665.367C41.2803 665.388 41.2279 665.398 41.175 665.398C41.122 665.398 41.0696 665.388 41.0207 665.367C40.9718 665.347 40.9274 665.317 40.89 665.28L40.32 664.71C40.2825 664.673 40.2528 664.628 40.2325 664.579C40.2122 664.53 40.2018 664.478 40.2018 664.425C40.2018 664.372 40.2122 664.32 40.2325 664.271C40.2528 664.222 40.2825 664.177 40.32 664.14L41.46 663L40.32 661.86C40.2825 661.823 40.2528 661.778 40.2325 661.729C40.2122 661.68 40.2018 661.628 40.2018 661.575C40.2018 661.522 40.2122 661.47 40.2325 661.421C40.2528 661.372 40.2825 661.327 40.32 661.29L40.89 660.72C40.9274 660.683 40.9718 660.653 41.0207 660.633C41.0696 660.612 41.122 660.602 41.175 660.602C41.2279 660.602 41.2803 660.612 41.3292 660.633C41.3781 660.653 41.4226 660.683 41.46 660.72L42.6 661.86L43.74 660.72C43.7774 660.683 43.8218 660.653 43.8707 660.633C43.9196 660.612 43.972 660.602 44.025 660.602C44.0779 660.602 44.1303 660.612 44.1792 660.633C44.2282 660.653 44.2726 660.683 44.31 660.72L44.88 661.29C44.9175 661.327 44.9472 661.372 44.9674 661.421C44.9877 661.47 44.9982 661.522 44.9982 661.575C44.9982 661.628 44.9877 661.68 44.9674 661.729C44.9472 661.778 44.9175 661.823 44.88 661.86Z" fill="#213F7D"/>
<path d="M36.84 664.2H36.4225C35.8511 664.463 35.2293 664.6 34.6 664.6C33.9707 664.6 33.3489 664.463 32.7775 664.2H32.36C31.4689 664.2 30.6144 664.554 29.9843 665.184C29.3543 665.814 29.0002 666.669 29 667.56V668.6C29 668.918 29.1264 669.223 29.3515 669.448C29.5765 669.674 29.8817 669.8 30.2 669.8H39C39.3183 669.8 39.6235 669.674 39.8485 669.448C40.0736 669.223 40.2 668.918 40.2 668.6V667.56C40.1998 666.669 39.8457 665.814 39.2157 665.184C38.5856 664.554 37.7311 664.2 36.84 664.2ZM34.6 663.4C35.2329 663.4 35.8516 663.212 36.3778 662.861C36.9041 662.509 37.3142 662.009 37.5564 661.425C37.7986 660.84 37.862 660.196 37.7385 659.576C37.615 658.955 37.3103 658.385 36.8627 657.937C36.4152 657.49 35.845 657.185 35.2243 657.061C34.6035 656.938 33.9601 657.001 33.3754 657.244C32.7907 657.486 32.2909 657.896 31.9393 658.422C31.5877 658.948 31.4 659.567 31.4 660.2C31.4 661.049 31.7371 661.863 32.3373 662.463C32.9374 663.063 33.7513 663.4 34.6 663.4Z" fill="#213F7D"/>
</g>
<defs>
<filter id="filter0_d_5530_0" x="-20" y="-15" width="323" height="1735" filterUnits="userSpaceOnUse" color-interpolation-filters="sRGB">
<feFlood flood-opacity="0" result="BackgroundImageFix"/>
<feColorMatrix in="SourceAlpha" type="matrix" values="0 0 0 0 0 0 0 0 0 0 0 0 0 0 0 0 0 0 127 0" result="hardAlpha"/>
<feOffset dy="5"/>
<feGaussianBlur stdDeviation="10"/>
<feColorMatrix type="matrix" values="0 0 0 0 0 0 0 0 0 0 0 0 0 0 0 0 0 0 0.04 0"/>
<feBlend mode="normal" in2="BackgroundImageFix" result="effect1_dropShadow_5530_0"/>
<feBlend mode="normal" in="SourceGraphic" in2="effect1_dropShadow_5530_0" result="shape"/>
</filter>
<clipPath id="clip0_5530_0">
<rect width="16" height="12.8" fill="white" transform="translate(29 657)"/>
</clipPath>
</defs>
</svg>
