<svg width="303" height="1384" viewBox="0 0 303 1384" fill="none" xmlns="http://www.w3.org/2000/svg">
<g filter="url(#filter0_d_5530_0)">
<rect width="283" height="1695" fill="white"/>
</g>
<g clip-path="url(#clip0_5530_0)">
<path d="M46.625 565.781L41.9 569.563C41.545 569.846 41.1042 570 40.65 570H29.5C29.3674 570 29.2402 569.947 29.1464 569.854C29.0527 569.76 29 569.633 29 569.5V566.5C29 566.367 29.0527 566.24 29.1464 566.146C29.2402 566.053 29.3674 566 29.5 566H31.2313L32.6844 564.822C33.3392 564.291 34.1567 564 35 564H40C40.1458 564 40.2898 564.031 40.4221 564.093C40.5543 564.154 40.6716 564.243 40.7657 564.355C40.8598 564.466 40.9284 564.597 40.9667 564.737C41.005 564.878 41.0121 565.025 40.9875 565.169C40.9063 565.659 40.4437 566 39.9469 566H37.5C37.3674 566 37.2402 566.053 37.1464 566.146C37.0527 566.24 37 566.367 37 566.5C37 566.633 37.0527 566.76 37.1464 566.854C37.2402 566.947 37.3674 567 37.5 567H41.1969C41.6513 567.001 42.0924 566.847 42.4469 566.563L45.3344 564.253C45.7219 563.941 46.2969 563.919 46.6656 564.253C46.7744 564.35 46.8606 564.469 46.9185 564.603C46.9763 564.736 47.0042 564.881 47.0004 565.027C46.9965 565.172 46.9609 565.315 46.8961 565.445C46.8312 565.576 46.7387 565.69 46.625 565.781V565.781Z" fill="#213F7D"/>
</g>
<g clip-path="url(#clip1_5530_0)">
<path opacity="0.4" d="M36.75 554.875H39.25L40.1758 553.486C40.2072 553.439 40.2253 553.384 40.228 553.328C40.2307 553.271 40.2181 553.215 40.1914 553.165C40.1647 553.115 40.125 553.074 40.0765 553.044C40.0279 553.015 39.9724 553 39.9159 553H36.0848C36.0282 553 35.9727 553.015 35.9242 553.044C35.8757 553.074 35.8359 553.115 35.8093 553.165C35.7826 553.215 35.7699 553.271 35.7727 553.328C35.7754 553.384 35.7934 553.439 35.8248 553.486L36.75 554.875ZM39.25 555.5H36.75C32.7973 557.754 33.0018 560.747 33.0018 561.125C33.0018 562.16 33.961 563 35.144 563H40.8565C42.0397 563 42.9987 562.16 42.9987 561.125C42.9987 560.754 43.1813 557.741 39.25 555.5Z" fill="#213F7D"/>
<path d="M39.582 555.031V555.344C39.582 555.385 39.5656 555.425 39.5363 555.454C39.507 555.484 39.4672 555.5 39.4258 555.5H36.5742C36.5328 555.5 36.493 555.484 36.4637 555.454C36.4344 555.425 36.418 555.385 36.418 555.344V555.031C36.418 554.99 36.4344 554.95 36.4637 554.921C36.493 554.891 36.5328 554.875 36.5742 554.875H39.4258C39.4672 554.875 39.507 554.891 39.5363 554.921C39.5656 554.95 39.582 554.99 39.582 555.031Z" fill="#213F7D"/>
<path d="M36.672 560.627V559.213H36.125V558.784H36.672V557.375H37.4456L38.2144 558.784H38.7367V557.375H39.328V558.784H39.875V559.213H39.328V560.627H38.5544L37.7758 559.213H37.2633V560.627H36.672ZM37.2633 558.74V558.784H37.5393L37.2534 558.208H37.2485L37.2633 558.74ZM38.7466 559.809H38.7564L38.7367 559.297V559.213H38.446L38.4657 559.243L38.7466 559.809Z" fill="#213F7D"/>
</g>
<defs>
<filter id="filter0_d_5530_0" x="-20" y="-15" width="323" height="1735" filterUnits="userSpaceOnUse" color-interpolation-filters="sRGB">
<feFlood flood-opacity="0" result="BackgroundImageFix"/>
<feColorMatrix in="SourceAlpha" type="matrix" values="0 0 0 0 0 0 0 0 0 0 0 0 0 0 0 0 0 0 127 0" result="hardAlpha"/>
<feOffset dy="5"/>
<feGaussianBlur stdDeviation="10"/>
<feColorMatrix type="matrix" values="0 0 0 0 0 0 0 0 0 0 0 0 0 0 0 0 0 0 0.04 0"/>
<feBlend mode="normal" in2="BackgroundImageFix" result="effect1_dropShadow_5530_0"/>
<feBlend mode="normal" in="SourceGraphic" in2="effect1_dropShadow_5530_0" result="shape"/>
</filter>
<clipPath id="clip0_5530_0">
<rect width="18" height="16" fill="white" transform="translate(29 559)"/>
</clipPath>
<clipPath id="clip1_5530_0">
<rect width="10" height="10" fill="white" transform="translate(33 553)"/>
</clipPath>
</defs>
</svg>
