<svg width="303" height="1384" viewBox="0 0 303 1384" fill="none" xmlns="http://www.w3.org/2000/svg">
<g filter="url(#filter0_d_5530_0)">
<rect width="283" height="1695" fill="white"/>
</g>
<g clip-path="url(#clip0_5530_0)">
<path opacity="0.4" d="M35.0001 408H39.0001L40.4813 405.777C40.5316 405.702 40.5604 405.615 40.5648 405.524C40.5692 405.434 40.549 405.344 40.5063 405.264C40.4636 405.184 40.4 405.118 40.3224 405.071C40.2447 405.025 40.1559 405 40.0654 405H33.9357C33.8452 405 33.7564 405.025 33.6787 405.071C33.6011 405.118 33.5375 405.184 33.4948 405.264C33.4521 405.344 33.4319 405.434 33.4363 405.524C33.4407 405.615 33.4695 405.702 33.5198 405.777L35.0001 408ZM39.0001 409H35.0001C28.6757 412.606 29.0029 417.395 29.0029 418C29.0029 419.656 30.5376 421 32.4304 421H41.5704C43.4635 421 44.9979 419.656 44.9979 418C44.9979 417.406 45.2901 412.586 39.0001 409Z" fill="#213F7D"/>
<path d="M39.5312 408.25V408.75C39.5312 408.816 39.5049 408.88 39.458 408.927C39.4111 408.974 39.3476 409 39.2812 409H34.7188C34.6524 409 34.5889 408.974 34.542 408.927C34.4951 408.88 34.4688 408.816 34.4688 408.75V408.25C34.4688 408.184 34.4951 408.12 34.542 408.073C34.5889 408.026 34.6524 408 34.7188 408H39.2812C39.3476 408 39.4111 408.026 39.458 408.073C39.5049 408.12 39.5312 408.184 39.5312 408.25Z" fill="#213F7D"/>
<path d="M34.8752 417.204V414.941H34V414.255H34.8752V412H36.113L37.343 414.255H38.1787V412H39.1248V414.255H40V414.941H39.1248V417.204H37.887L36.6413 414.941H35.8213V417.204H34.8752ZM35.8213 414.184V414.255H36.2628L35.8055 413.332H35.7976L35.8213 414.184ZM38.1945 415.895H38.2102L38.1787 415.075V414.941H37.7135L37.7451 414.988L38.1945 415.895Z" fill="#213F7D"/>
</g>
<defs>
<filter id="filter0_d_5530_0" x="-20" y="-15" width="323" height="1735" filterUnits="userSpaceOnUse" color-interpolation-filters="sRGB">
<feFlood flood-opacity="0" result="BackgroundImageFix"/>
<feColorMatrix in="SourceAlpha" type="matrix" values="0 0 0 0 0 0 0 0 0 0 0 0 0 0 0 0 0 0 127 0" result="hardAlpha"/>
<feOffset dy="5"/>
<feGaussianBlur stdDeviation="10"/>
<feColorMatrix type="matrix" values="0 0 0 0 0 0 0 0 0 0 0 0 0 0 0 0 0 0 0.04 0"/>
<feBlend mode="normal" in2="BackgroundImageFix" result="effect1_dropShadow_5530_0"/>
<feBlend mode="normal" in="SourceGraphic" in2="effect1_dropShadow_5530_0" result="shape"/>
</filter>
<clipPath id="clip0_5530_0">
<rect width="16" height="16" fill="white" transform="translate(29 405)"/>
</clipPath>
</defs>
</svg>
