<svg width="303" height="1384" viewBox="0 0 303 1384" fill="none" xmlns="http://www.w3.org/2000/svg">
<g filter="url(#filter0_d_5530_0)">
<rect width="283" height="1695" fill="white"/>
</g>
<g clip-path="url(#clip0_5530_0)">
<path opacity="0.4" d="M44.5 1246H38V1248H44.5C44.6326 1248 44.7598 1247.95 44.8536 1247.85C44.9473 1247.76 45 1247.63 45 1247.5V1246.5C45 1246.37 44.9473 1246.24 44.8536 1246.15C44.7598 1246.05 44.6326 1246 44.5 1246ZM29.5 1248H35V1246H29.5C29.3674 1246 29.2402 1246.05 29.1464 1246.15C29.0527 1246.24 29 1246.37 29 1246.5V1247.5C29 1247.63 29.0527 1247.76 29.1464 1247.85C29.2402 1247.95 29.3674 1248 29.5 1248ZM29.5 1253H39V1251H29.5C29.3674 1251 29.2402 1251.05 29.1464 1251.15C29.0527 1251.24 29 1251.37 29 1251.5V1252.5C29 1252.63 29.0527 1252.76 29.1464 1252.85C29.2402 1252.95 29.3674 1253 29.5 1253ZM44.5 1251H42V1253H44.5C44.6326 1253 44.7598 1252.95 44.8536 1252.85C44.9473 1252.76 45 1252.63 45 1252.5V1251.5C45 1251.37 44.9473 1251.24 44.8536 1251.15C44.7598 1251.05 44.6326 1251 44.5 1251ZM44.5 1256H34V1258H44.5C44.6326 1258 44.7598 1257.95 44.8536 1257.85C44.9473 1257.76 45 1257.63 45 1257.5V1256.5C45 1256.37 44.9473 1256.24 44.8536 1256.15C44.7598 1256.05 44.6326 1256 44.5 1256ZM29 1256.5V1257.5C29 1257.63 29.0527 1257.76 29.1464 1257.85C29.2402 1257.95 29.3674 1258 29.5 1258H31V1256H29.5C29.3674 1256 29.2402 1256.05 29.1464 1256.15C29.0527 1256.24 29 1256.37 29 1256.5V1256.5Z" fill="#213F7D"/>
<path d="M37.5 1245H36.5C36.3674 1245 36.2402 1245.05 36.1464 1245.15C36.0527 1245.24 36 1245.37 36 1245.5V1248.5C36 1248.63 36.0527 1248.76 36.1464 1248.85C36.2402 1248.95 36.3674 1249 36.5 1249H37.5C37.6326 1249 37.7598 1248.95 37.8536 1248.85C37.9473 1248.76 38 1248.63 38 1248.5V1245.5C38 1245.37 37.9473 1245.24 37.8536 1245.15C37.7598 1245.05 37.6326 1245 37.5 1245ZM41.5 1250H40.5C40.3674 1250 40.2402 1250.05 40.1464 1250.15C40.0527 1250.24 40 1250.37 40 1250.5V1253.5C40 1253.63 40.0527 1253.76 40.1464 1253.85C40.2402 1253.95 40.3674 1254 40.5 1254H41.5C41.6326 1254 41.7598 1253.95 41.8536 1253.85C41.9473 1253.76 42 1253.63 42 1253.5V1250.5C42 1250.37 41.9473 1250.24 41.8536 1250.15C41.7598 1250.05 41.6326 1250 41.5 1250ZM33.5 1255H32.5C32.3674 1255 32.2402 1255.05 32.1464 1255.15C32.0527 1255.24 32 1255.37 32 1255.5V1258.5C32 1258.63 32.0527 1258.76 32.1464 1258.85C32.2402 1258.95 32.3674 1259 32.5 1259H33.5C33.6326 1259 33.7598 1258.95 33.8536 1258.85C33.9473 1258.76 34 1258.63 34 1258.5V1255.5C34 1255.37 33.9473 1255.24 33.8536 1255.15C33.7598 1255.05 33.6326 1255 33.5 1255Z" fill="#213F7D"/>
</g>
<defs>
<filter id="filter0_d_5530_0" x="-20" y="-15" width="323" height="1735" filterUnits="userSpaceOnUse" color-interpolation-filters="sRGB">
<feFlood flood-opacity="0" result="BackgroundImageFix"/>
<feColorMatrix in="SourceAlpha" type="matrix" values="0 0 0 0 0 0 0 0 0 0 0 0 0 0 0 0 0 0 127 0" result="hardAlpha"/>
<feOffset dy="5"/>
<feGaussianBlur stdDeviation="10"/>
<feColorMatrix type="matrix" values="0 0 0 0 0 0 0 0 0 0 0 0 0 0 0 0 0 0 0.04 0"/>
<feBlend mode="normal" in2="BackgroundImageFix" result="effect1_dropShadow_5530_0"/>
<feBlend mode="normal" in="SourceGraphic" in2="effect1_dropShadow_5530_0" result="shape"/>
</filter>
<clipPath id="clip0_5530_0">
<rect width="16" height="16" fill="white" transform="translate(29 1244)"/>
</clipPath>
</defs>
</svg>
