<svg width="303" height="1384" viewBox="0 0 303 1384" fill="none" xmlns="http://www.w3.org/2000/svg">
<g filter="url(#filter0_d_5530_0)">
<rect width="283" height="1695" fill="white"/>
</g>
<path opacity="0.4" d="M45 1164.5V1165.5C45 1165.63 44.9473 1165.76 44.8536 1165.85C44.7598 1165.95 44.6326 1166 44.5 1166H30C29.7348 1166 29.4804 1165.89 29.2929 1165.71C29.1054 1165.52 29 1165.27 29 1165V1154.5C29 1154.37 29.0527 1154.24 29.1464 1154.15C29.2402 1154.05 29.3674 1154 29.5 1154H30.5C30.6326 1154 30.7598 1154.05 30.8536 1154.15C30.9473 1154.24 31 1154.37 31 1154.5V1164H44.5C44.6326 1164 44.7598 1164.05 44.8536 1164.15C44.9473 1164.24 45 1164.37 45 1164.5Z" fill="#213F7D"/>
<defs>
<filter id="filter0_d_5530_0" x="-20" y="-15" width="323" height="1735" filterUnits="userSpaceOnUse" color-interpolation-filters="sRGB">
<feFlood flood-opacity="0" result="BackgroundImageFix"/>
<feColorMatrix in="SourceAlpha" type="matrix" values="0 0 0 0 0 0 0 0 0 0 0 0 0 0 0 0 0 0 127 0" result="hardAlpha"/>
<feOffset dy="5"/>
<feGaussianBlur stdDeviation="10"/>
<feColorMatrix type="matrix" values="0 0 0 0 0 0 0 0 0 0 0 0 0 0 0 0 0 0 0.04 0"/>
<feBlend mode="normal" in2="BackgroundImageFix" result="effect1_dropShadow_5530_0"/>
<feBlend mode="normal" in="SourceGraphic" in2="effect1_dropShadow_5530_0" result="shape"/>
</filter>
</defs>
</svg>
