<svg width="303" height="1384" viewBox="0 0 303 1384" fill="none" xmlns="http://www.w3.org/2000/svg">
<g filter="url(#filter0_d_5530_0)">
<rect width="283" height="1695" fill="white"/>
</g>
<g clip-path="url(#clip0_5530_0)">
<path opacity="0.4" d="M44.5555 513.222H43.7358C43.4921 512.671 43.1389 512.175 42.6975 511.765L43.2222 509.667H42.3333C41.5166 509.667 40.7947 510.042 40.3055 510.62C40.0952 510.589 39.8855 510.556 39.6666 510.556H36.1111C33.4772 510.556 31.6666 512.747 31.6666 515C31.6661 515.69 31.8265 516.371 32.1351 516.988C32.4437 517.605 32.892 518.142 33.4444 518.556V520.778C33.4444 520.896 33.4912 521.009 33.5746 521.092C33.6579 521.175 33.771 521.222 33.8888 521.222H35.6666C35.7845 521.222 35.8975 521.175 35.9809 521.092C36.0642 521.009 36.1111 520.896 36.1111 520.778V519.444H39.6666V520.778C39.6666 520.896 39.7135 521.009 39.7968 521.092C39.8802 521.175 39.9932 521.222 40.1111 521.222H41.8889C42.0067 521.222 42.1198 521.175 42.2031 521.092C42.2865 521.009 42.3333 520.896 42.3333 520.778V518.536C42.6617 518.287 42.9541 517.995 43.2022 517.667H44.5555C44.6734 517.667 44.7864 517.62 44.8698 517.536C44.9531 517.453 45 517.34 45 517.222V513.667C45 513.549 44.9531 513.436 44.8698 513.352C44.7864 513.269 44.6734 513.222 44.5555 513.222ZM41 515C40.9121 515 40.8261 514.974 40.753 514.925C40.68 514.876 40.623 514.807 40.5893 514.726C40.5557 514.644 40.5469 514.555 40.5641 514.469C40.5812 514.383 40.6235 514.303 40.6857 514.241C40.7478 514.179 40.827 514.137 40.9133 514.12C40.9995 514.102 41.0888 514.111 41.17 514.145C41.2513 514.179 41.3207 514.236 41.3695 514.309C41.4183 514.382 41.4444 514.468 41.4444 514.556C41.4444 514.673 41.3976 514.786 41.3142 514.87C41.2309 514.953 41.1178 515 41 515Z" fill="#213F7D"/>
<path d="M30.4239 514.098C30.3381 514.08 30.2566 514.046 30.184 513.997C30.1114 513.948 30.0491 513.886 30.0008 513.813C29.9525 513.74 29.919 513.658 29.9022 513.572C29.8855 513.486 29.8859 513.397 29.9033 513.312C29.965 512.995 30.2611 512.778 30.5833 512.778H30.6111C30.6553 512.778 30.6977 512.76 30.729 512.729C30.7602 512.698 30.7778 512.655 30.7778 512.611V512.056C30.7778 512.011 30.7602 511.969 30.729 511.938C30.6977 511.906 30.6553 511.889 30.6111 511.889C29.8194 511.889 29.1139 512.456 29.0131 513.239C29.0043 513.306 28.9999 513.373 29 513.44C28.9995 513.853 29.1631 514.25 29.4548 514.542C29.7465 514.835 30.1425 514.999 30.5556 515H31.6667C31.667 514.701 31.6983 514.403 31.7603 514.111H30.5556C30.5113 514.111 30.4672 514.107 30.4239 514.098ZM41 514.111C40.9121 514.111 40.8262 514.137 40.7531 514.186C40.68 514.235 40.623 514.304 40.5894 514.385C40.5557 514.467 40.5469 514.556 40.5641 514.642C40.5812 514.728 40.6236 514.808 40.6857 514.87C40.7479 514.932 40.8271 514.974 40.9133 514.991C40.9995 515.009 41.0889 515 41.1701 514.966C41.2513 514.933 41.3207 514.876 41.3695 514.802C41.4184 514.729 41.4444 514.643 41.4444 514.556C41.4444 514.438 41.3976 514.325 41.3143 514.241C41.2309 514.158 41.1179 514.111 41 514.111ZM37.5139 507C37.0759 507 36.6446 507.108 36.2581 507.314C35.8717 507.52 35.5419 507.818 35.2981 508.182C35.0542 508.546 34.9037 508.964 34.8599 509.4C34.8161 509.836 34.8804 510.276 35.0469 510.681C35.3954 510.597 35.7527 510.555 36.1111 510.556H39.6667C39.7847 510.557 39.9026 510.565 40.0197 510.58C40.1662 510.177 40.2134 509.745 40.1574 509.32C40.1014 508.895 39.9438 508.489 39.698 508.138C39.4522 507.787 39.1253 507.5 38.7451 507.302C38.3649 507.104 37.9426 507 37.5139 507Z" fill="#213F7D"/>
</g>
<defs>
<filter id="filter0_d_5530_0" x="-20" y="-15" width="323" height="1735" filterUnits="userSpaceOnUse" color-interpolation-filters="sRGB">
<feFlood flood-opacity="0" result="BackgroundImageFix"/>
<feColorMatrix in="SourceAlpha" type="matrix" values="0 0 0 0 0 0 0 0 0 0 0 0 0 0 0 0 0 0 127 0" result="hardAlpha"/>
<feOffset dy="5"/>
<feGaussianBlur stdDeviation="10"/>
<feColorMatrix type="matrix" values="0 0 0 0 0 0 0 0 0 0 0 0 0 0 0 0 0 0 0.04 0"/>
<feBlend mode="normal" in2="BackgroundImageFix" result="effect1_dropShadow_5530_0"/>
<feBlend mode="normal" in="SourceGraphic" in2="effect1_dropShadow_5530_0" result="shape"/>
</filter>
<clipPath id="clip0_5530_0">
<rect width="16" height="14.2222" fill="white" transform="translate(29 507)"/>
</clipPath>
</defs>
</svg>
