<svg width="303" height="1384" viewBox="0 0 303 1384" fill="none" xmlns="http://www.w3.org/2000/svg">
<g filter="url(#filter0_d_5530_0)">
<rect width="283" height="1695" fill="white"/>
</g>
<path opacity="0.4" d="M33.7629 1013.88C33.2708 1013.77 32.7942 1013.61 32.3453 1013.38C31.563 1013.5 30.764 1013.41 30.0292 1013.11C29.609 1012.94 29.2396 1013.45 29.526 1013.8C29.9601 1014.33 30.4796 1014.78 31.0631 1015.14C32.5737 1016.07 34.4471 1016.24 36.1001 1015.68C36.5434 1015.09 36.8334 1014.4 36.9441 1013.67C35.921 1014.02 34.8228 1014.09 33.7629 1013.88ZM33.3306 1009.94C32.9797 1008.92 32.9083 1007.82 33.1239 1006.76C33.2259 1006.27 33.3921 1005.79 33.618 1005.35C33.5022 1004.56 33.5951 1003.76 33.8873 1003.03C34.0557 1002.61 33.5535 1002.24 33.2031 1002.53C32.6738 1002.96 32.2209 1003.48 31.8631 1004.06C30.9298 1005.57 30.7564 1007.45 31.3172 1009.1C31.9084 1009.54 32.6001 1009.83 33.3306 1009.94ZM40.6695 1010.06C41.0204 1011.08 41.0918 1012.18 40.8762 1013.24C40.7741 1013.73 40.608 1014.21 40.3821 1014.65C40.4979 1015.44 40.405 1016.24 40.1128 1016.97C39.9444 1017.39 40.4466 1017.76 40.797 1017.47C41.3262 1017.04 41.7791 1016.52 42.137 1015.94C43.0703 1014.43 43.2437 1012.55 42.6829 1010.9C42.0917 1010.46 41.4 1010.17 40.6695 1010.06ZM44.4741 1006.2C44.04 1005.67 43.5205 1005.22 42.937 1004.86C41.4264 1003.93 39.553 1003.76 37.8999 1004.32C37.4567 1004.91 37.1667 1005.6 37.056 1006.33C38.079 1005.98 39.1773 1005.91 40.2372 1006.12C40.7293 1006.23 41.2059 1006.39 41.6548 1006.62C42.4371 1006.5 43.2361 1006.59 43.9709 1006.89C44.3911 1007.06 44.7605 1006.55 44.4741 1006.2Z" fill="#213F7D"/>
<path d="M44.8305 1010.57C44.3056 1008.34 42.4761 1006.57 40.2371 1006.12C39.1772 1005.91 38.079 1005.98 37.0559 1006.33C37.1696 1005.57 37.4748 1004.86 37.9425 1004.25C38.4101 1003.65 39.0248 1003.17 39.7281 1002.87C40.1442 1002.69 40.0505 1002.08 39.6002 1002.03C38.919 1001.96 38.2313 1002.01 37.5656 1002.17C35.3437 1002.69 33.5708 1004.52 33.1238 1006.76C32.9082 1007.82 32.9796 1008.92 33.3306 1009.94C32.5739 1009.83 31.8587 1009.53 31.2531 1009.06C30.6474 1008.59 30.1712 1007.98 29.8698 1007.27C29.6918 1006.86 29.0755 1006.95 29.0301 1007.4C28.9628 1008.08 29.0099 1008.77 29.1695 1009.43C29.6944 1011.66 31.5238 1013.43 33.7628 1013.88C34.8227 1014.09 35.921 1014.02 36.9441 1013.67C36.8303 1014.43 36.5252 1015.14 36.0575 1015.75C35.5898 1016.35 34.9752 1016.83 34.2718 1017.13C33.8557 1017.31 33.9495 1017.92 34.3998 1017.97C35.081 1018.04 35.7686 1017.99 36.4343 1017.83C38.6562 1017.31 40.4291 1015.48 40.8762 1013.24C41.0918 1012.18 41.0204 1011.08 40.6694 1010.06C41.4261 1010.17 42.1412 1010.47 42.7469 1010.94C43.3526 1011.41 43.8287 1012.02 44.1302 1012.73C44.3081 1013.14 44.9245 1013.05 44.9699 1012.6C45.0371 1011.92 44.99 1011.23 44.8305 1010.57ZM37 1011.5C36.7033 1011.5 36.4133 1011.41 36.1666 1011.25C35.9199 1011.08 35.7277 1010.85 35.6141 1010.57C35.5006 1010.3 35.4709 1010 35.5288 1009.71C35.5867 1009.42 35.7295 1009.15 35.9393 1008.94C36.1491 1008.73 36.4164 1008.59 36.7073 1008.53C36.9983 1008.47 37.2999 1008.5 37.574 1008.61C37.8481 1008.73 38.0823 1008.92 38.2472 1009.17C38.412 1009.41 38.5 1009.7 38.5 1010C38.5 1010.4 38.3419 1010.78 38.0606 1011.06C37.7793 1011.34 37.3978 1011.5 37 1011.5Z" fill="#213F7D"/>
<defs>
<filter id="filter0_d_5530_0" x="-20" y="-15" width="323" height="1735" filterUnits="userSpaceOnUse" color-interpolation-filters="sRGB">
<feFlood flood-opacity="0" result="BackgroundImageFix"/>
<feColorMatrix in="SourceAlpha" type="matrix" values="0 0 0 0 0 0 0 0 0 0 0 0 0 0 0 0 0 0 127 0" result="hardAlpha"/>
<feOffset dy="5"/>
<feGaussianBlur stdDeviation="10"/>
<feColorMatrix type="matrix" values="0 0 0 0 0 0 0 0 0 0 0 0 0 0 0 0 0 0 0.04 0"/>
<feBlend mode="normal" in2="BackgroundImageFix" result="effect1_dropShadow_5530_0"/>
<feBlend mode="normal" in="SourceGraphic" in2="effect1_dropShadow_5530_0" result="shape"/>
</filter>
</defs>
</svg>
