<svg width="303" height="1384" viewBox="0 0 303 1384" fill="none" xmlns="http://www.w3.org/2000/svg">
<g filter="url(#filter0_d_5530_0)">
<rect width="283" height="1695" fill="white"/>
</g>
<g clip-path="url(#clip0_5530_0)">
<path opacity="0.4" d="M42.6 1104.4V1111.6H36.6C36.4939 1111.6 36.3921 1111.64 36.3171 1111.72C36.2421 1111.79 36.2 1111.89 36.2 1112V1112.8C36.2 1113.33 35.9892 1113.84 35.6142 1114.21C35.2391 1114.59 34.7304 1114.8 34.2 1114.8C33.6695 1114.8 33.1608 1114.59 32.7857 1114.21C32.4107 1113.84 32.2 1113.33 32.2 1112.8V1103.62C32.2 1103.19 32.0287 1102.78 31.724 1102.48C31.4193 1102.17 31.0059 1102 30.575 1102H40.2C40.8363 1102 41.4463 1102.25 41.8963 1102.7C42.3462 1103.15 42.5993 1103.76 42.6 1104.4Z" fill="#213F7D"/>
<path d="M30.6 1102C30.1757 1102 29.7687 1102.17 29.4686 1102.47C29.1686 1102.77 29 1103.18 29 1103.6V1104.8C29 1104.91 29.0421 1105.01 29.1172 1105.08C29.1922 1105.16 29.2939 1105.2 29.4 1105.2H32.2V1103.62C32.2001 1103.2 32.0323 1102.79 31.7329 1102.48C31.4336 1102.18 31.0266 1102.01 30.6 1102V1102ZM33.8 1114.8H34.2C34.1353 1114.8 34.0715 1114.8 34.0085 1114.79C33.9398 1114.8 33.8703 1114.8 33.8 1114.8ZM44.6 1111.6H36.6C36.4939 1111.6 36.3922 1111.64 36.3172 1111.72C36.2421 1111.79 36.2 1111.89 36.2 1112V1112.8C36.2 1113.33 35.9893 1113.84 35.6142 1114.21C35.2391 1114.59 34.7304 1114.8 34.2 1114.8H42.2C42.5678 1114.8 42.9321 1114.73 43.2719 1114.59C43.6117 1114.45 43.9204 1114.24 44.1804 1113.98C44.4405 1113.72 44.6467 1113.41 44.7873 1113.07C44.9279 1112.73 45.0002 1112.37 45 1112C44.9996 1111.89 44.9573 1111.79 44.8823 1111.72C44.8073 1111.64 44.7058 1111.6 44.6 1111.6Z" fill="#213F7D"/>
</g>
<defs>
<filter id="filter0_d_5530_0" x="-20" y="-15" width="323" height="1735" filterUnits="userSpaceOnUse" color-interpolation-filters="sRGB">
<feFlood flood-opacity="0" result="BackgroundImageFix"/>
<feColorMatrix in="SourceAlpha" type="matrix" values="0 0 0 0 0 0 0 0 0 0 0 0 0 0 0 0 0 0 127 0" result="hardAlpha"/>
<feOffset dy="5"/>
<feGaussianBlur stdDeviation="10"/>
<feColorMatrix type="matrix" values="0 0 0 0 0 0 0 0 0 0 0 0 0 0 0 0 0 0 0.04 0"/>
<feBlend mode="normal" in2="BackgroundImageFix" result="effect1_dropShadow_5530_0"/>
<feBlend mode="normal" in="SourceGraphic" in2="effect1_dropShadow_5530_0" result="shape"/>
</filter>
<clipPath id="clip0_5530_0">
<rect width="16" height="12.8" fill="white" transform="translate(29 1102)"/>
</clipPath>
</defs>
</svg>
