<svg width="303" height="1384" viewBox="0 0 303 1384" fill="none" xmlns="http://www.w3.org/2000/svg">
<g filter="url(#filter0_d_5530_0)">
<rect width="283" height="1695" fill="white"/>
</g>
<path d="M42.0001 954.945V949.999C42.0001 949.735 41.8941 949.48 41.7066 949.293C41.5191 949.105 41.2651 949 40.9998 949H30.0003C29.4481 949 29 949.447 29 949.999V965.999C29 966.265 29.105 966.519 29.2925 966.706C29.48 966.894 29.735 967 30.0003 967H40.9998C41.2651 967 41.5191 966.894 41.7066 966.706C41.8941 966.519 42.0001 966.265 42.0001 965.999V961.945H40.9998V965.999H30.0003V949.999H40.9998V954.945H42.0001Z" fill="#213F7D"/>
<path d="M30.9996 962.995H39.9995V963.995H30.9996V962.995Z" fill="#213F7D"/>
<path d="M30.9996 951.495H39.9995V952.496H30.9996V951.495Z" fill="#213F7D"/>
<path d="M34.7495 964.495C34.4739 964.495 34.2499 964.719 34.2499 964.995C34.2499 965.271 34.4739 965.495 34.7495 965.495H36.2495C36.5261 965.495 36.7501 965.271 36.7501 964.995C36.7501 964.719 36.5261 964.495 36.2495 964.495H34.7495Z" fill="#213F7D"/>
<path d="M39.9994 955.445H35.4995V953.445L31.5002 955.945L35.4995 958.445V956.445H39.9994V955.445Z" fill="#213F7D"/>
<path d="M45 958.445L40.9998 955.945V957.945H36.4999V958.945H40.9998V960.945L45 958.445Z" fill="#213F7D"/>
<defs>
<filter id="filter0_d_5530_0" x="-20" y="-15" width="323" height="1735" filterUnits="userSpaceOnUse" color-interpolation-filters="sRGB">
<feFlood flood-opacity="0" result="BackgroundImageFix"/>
<feColorMatrix in="SourceAlpha" type="matrix" values="0 0 0 0 0 0 0 0 0 0 0 0 0 0 0 0 0 0 127 0" result="hardAlpha"/>
<feOffset dy="5"/>
<feGaussianBlur stdDeviation="10"/>
<feColorMatrix type="matrix" values="0 0 0 0 0 0 0 0 0 0 0 0 0 0 0 0 0 0 0.04 0"/>
<feBlend mode="normal" in2="BackgroundImageFix" result="effect1_dropShadow_5530_0"/>
<feBlend mode="normal" in="SourceGraphic" in2="effect1_dropShadow_5530_0" result="shape"/>
</filter>
</defs>
</svg>
