<svg width="303" height="1384" viewBox="0 0 303 1384" fill="none" xmlns="http://www.w3.org/2000/svg">
<g filter="url(#filter0_d_5530_0)">
<rect width="283" height="1695" fill="white"/>
</g>
<path opacity="0.4" d="M42 313.4C42.4747 313.4 42.9387 313.259 43.3334 312.996C43.728 312.732 44.0356 312.357 44.2173 311.918C44.399 311.48 44.4465 310.997 44.3539 310.532C44.2613 310.066 44.0327 309.639 43.697 309.303C43.3614 308.967 42.9338 308.739 42.4682 308.646C42.0026 308.554 41.5201 308.601 41.0815 308.783C40.643 308.964 40.2682 309.272 40.0044 309.667C39.7407 310.061 39.6 310.525 39.6 311C39.6 311.637 39.8528 312.247 40.3029 312.697C40.753 313.147 41.3635 313.4 42 313.4ZM43.2 314.2H43.105C42.7575 314.32 42.39 314.4 42 314.4C41.61 314.4 41.2425 314.32 40.895 314.2H40.8C40.29 314.2 39.82 314.348 39.4075 314.585C40.0175 315.243 40.4 316.115 40.4 317.08V318.04C40.4 318.095 40.3875 318.148 40.385 318.2H44.8C45.1183 318.2 45.4235 318.074 45.6485 317.849C45.8736 317.623 46 317.318 46 317C46.0002 316.632 45.9279 316.268 45.7873 315.928C45.6466 315.588 45.4404 315.28 45.1803 315.02C44.9203 314.76 44.6115 314.553 44.2717 314.413C43.9319 314.272 43.5677 314.2 43.2 314.2Z" fill="#213F7D"/>
<path d="M34.8 313.4C35.3538 313.4 35.8951 313.236 36.3556 312.928C36.8161 312.62 37.1749 312.183 37.3869 311.672C37.5988 311.16 37.6542 310.597 37.5462 310.054C37.4382 309.511 37.1715 309.012 36.7799 308.62C36.3883 308.229 35.8894 307.962 35.3463 307.854C34.8031 307.746 34.2401 307.801 33.7285 308.013C33.2169 308.225 32.7796 308.584 32.4719 309.044C32.1642 309.505 32 310.046 32 310.6C31.9998 310.968 32.0721 311.332 32.2127 311.672C32.3534 312.012 32.5596 312.32 32.8197 312.58C33.0797 312.84 33.3885 313.047 33.7283 313.187C34.0681 313.328 34.4322 313.4 34.8 313.4ZM36.72 314.2H36.5125C35.9791 314.461 35.3937 314.597 34.8 314.6C34.185 314.6 33.61 314.45 33.0875 314.2H32.88C32.1162 314.2 31.3838 314.504 30.8438 315.044C30.3037 315.584 30.0002 316.316 30 317.08V317.8C30 318.118 30.1264 318.424 30.3515 318.649C30.5765 318.874 30.8817 319 31.2 319H38.4C38.7183 319 39.0235 318.874 39.2485 318.649C39.4736 318.424 39.6 318.118 39.6 317.8V317.08C39.5998 316.316 39.2963 315.584 38.7562 315.044C38.2162 314.504 37.4838 314.2 36.72 314.2Z" fill="#213F7D"/>
<defs>
<filter id="filter0_d_5530_0" x="-20" y="-15" width="323" height="1735" filterUnits="userSpaceOnUse" color-interpolation-filters="sRGB">
<feFlood flood-opacity="0" result="BackgroundImageFix"/>
<feColorMatrix in="SourceAlpha" type="matrix" values="0 0 0 0 0 0 0 0 0 0 0 0 0 0 0 0 0 0 127 0" result="hardAlpha"/>
<feOffset dy="5"/>
<feGaussianBlur stdDeviation="10"/>
<feColorMatrix type="matrix" values="0 0 0 0 0 0 0 0 0 0 0 0 0 0 0 0 0 0 0.04 0"/>
<feBlend mode="normal" in2="BackgroundImageFix" result="effect1_dropShadow_5530_0"/>
<feBlend mode="normal" in="SourceGraphic" in2="effect1_dropShadow_5530_0" result="shape"/>
</filter>
</defs>
</svg>
