<svg width="303" height="1384" viewBox="0 0 303 1384" fill="none" xmlns="http://www.w3.org/2000/svg">
<g filter="url(#filter0_d_5530_0)">
<rect width="283" height="1695" fill="white"/>
</g>
<g clip-path="url(#clip0_5530_0)">
<path opacity="0.4" d="M44.915 610.99C44.9696 611.046 45 611.122 44.9995 611.2C44.999 611.279 44.9678 611.354 44.9125 611.41L41.38 614.915C41.3523 614.942 41.3194 614.964 41.2833 614.979C41.2472 614.994 41.2085 615.001 41.1695 615.001C41.1304 615.001 41.0919 614.993 41.0559 614.978C41.02 614.962 40.9874 614.94 40.96 614.912L38.9175 612.855C38.89 612.827 38.8683 612.794 38.8535 612.758C38.8388 612.722 38.8313 612.683 38.8315 612.644C38.8318 612.605 38.8397 612.567 38.8549 612.531C38.8701 612.495 38.8922 612.462 38.92 612.435L39.6225 611.737C39.6502 611.71 39.6831 611.688 39.7192 611.674C39.7553 611.659 39.794 611.651 39.833 611.652C39.872 611.652 39.9106 611.66 39.9466 611.675C39.9825 611.69 40.0151 611.712 40.0425 611.74L41.18 612.885L43.8 610.285C43.8277 610.258 43.8606 610.236 43.8967 610.221C43.9328 610.206 43.9715 610.199 44.0105 610.199C44.0495 610.199 44.0881 610.207 44.1241 610.222C44.16 610.238 44.1926 610.26 44.22 610.287L44.915 610.99Z" fill="#213F7D"/>
<path d="M34.6 613.4C35.2329 613.4 35.8516 613.212 36.3778 612.861C36.9041 612.509 37.3142 612.009 37.5564 611.425C37.7986 610.84 37.862 610.196 37.7385 609.576C37.615 608.955 37.3103 608.385 36.8627 607.937C36.4152 607.49 35.845 607.185 35.2243 607.061C34.6035 606.938 33.9601 607.001 33.3754 607.244C32.7907 607.486 32.2909 607.896 31.9393 608.422C31.5877 608.948 31.4 609.567 31.4 610.2C31.4 611.049 31.7371 611.863 32.3373 612.463C32.9374 613.063 33.7513 613.4 34.6 613.4ZM36.84 614.2H36.4225C35.8511 614.463 35.2293 614.6 34.6 614.6C33.9707 614.6 33.3489 614.463 32.7775 614.2H32.36C31.4689 614.2 30.6144 614.554 29.9843 615.184C29.3543 615.814 29.0002 616.669 29 617.56V618.6C29 618.918 29.1264 619.223 29.3515 619.448C29.5765 619.674 29.8817 619.8 30.2 619.8H39C39.3183 619.8 39.6235 619.674 39.8485 619.448C40.0736 619.223 40.2 618.918 40.2 618.6V617.56C40.1998 616.669 39.8457 615.814 39.2157 615.184C38.5856 614.554 37.7311 614.2 36.84 614.2Z" fill="#213F7D"/>
</g>
<defs>
<filter id="filter0_d_5530_0" x="-20" y="-15" width="323" height="1735" filterUnits="userSpaceOnUse" color-interpolation-filters="sRGB">
<feFlood flood-opacity="0" result="BackgroundImageFix"/>
<feColorMatrix in="SourceAlpha" type="matrix" values="0 0 0 0 0 0 0 0 0 0 0 0 0 0 0 0 0 0 127 0" result="hardAlpha"/>
<feOffset dy="5"/>
<feGaussianBlur stdDeviation="10"/>
<feColorMatrix type="matrix" values="0 0 0 0 0 0 0 0 0 0 0 0 0 0 0 0 0 0 0.04 0"/>
<feBlend mode="normal" in2="BackgroundImageFix" result="effect1_dropShadow_5530_0"/>
<feBlend mode="normal" in="SourceGraphic" in2="effect1_dropShadow_5530_0" result="shape"/>
</filter>
<clipPath id="clip0_5530_0">
<rect width="16" height="12.8" fill="white" transform="translate(29 607)"/>
</clipPath>
</defs>
</svg>
